<?xml version="1.0" encoding="utf-8" standalone="no"?>
<!DOCTYPE svg PUBLIC "-//W3C//DTD SVG 1.1//EN"
  "http://www.w3.org/Graphics/SVG/1.1/DTD/svg11.dtd">
<svg xmlns:xlink="http://www.w3.org/1999/xlink" width="845.45775pt" height="585.126175pt" viewBox="0 0 845.45775 585.126175" xmlns="http://www.w3.org/2000/svg" version="1.1">
 <metadata>
  <rdf:RDF xmlns:dc="http://purl.org/dc/elements/1.1/" xmlns:cc="http://creativecommons.org/ns#" xmlns:rdf="http://www.w3.org/1999/02/22-rdf-syntax-ns#">
   <cc:Work>
    <dc:type rdf:resource="http://purl.org/dc/dcmitype/StillImage"/>
    <dc:date>2024-09-30T20:27:50.458781</dc:date>
    <dc:format>image/svg+xml</dc:format>
    <dc:creator>
     <cc:Agent>
      <dc:title>Matplotlib v3.9.2, https://matplotlib.org/</dc:title>
     </cc:Agent>
    </dc:creator>
   </cc:Work>
  </rdf:RDF>
 </metadata>
 <defs>
  <style type="text/css">*{stroke-linejoin: round; stroke-linecap: butt}</style>
 </defs>
 <g id="figure_1">
  <g id="patch_1">
   <path d="M 0 585.126175 
L 845.45775 585.126175 
L 845.45775 0 
L 0 0 
z
" style="fill: #ffffff"/>
  </g>
  <g id="axes_1">
   <g id="patch_2">
    <path d="M 77.06875 371.106 
L 769.05875 371.106 
L 769.05875 7.2 
L 77.06875 7.2 
z
" style="fill: #ffffff"/>
   </g>
   <g id="matplotlib.axis_1">
    <g id="xtick_1">
     <g id="line2d_1">
      <defs>
       <path id="m53eaa36148" d="M 0 0 
L 0 3.5 
" style="stroke: #262626; stroke-width: 0.8"/>
      </defs>
      <g>
       <use xlink:href="#m53eaa36148" x="95.279013" y="371.106" style="fill: #262626; stroke: #262626; stroke-width: 0.8"/>
      </g>
     </g>
     <g id="text_1">
      <!-- USME -->
      <g style="fill: #696969" transform="translate(98.590263 423.942875) rotate(-90) scale(0.12 -0.12)">
       <defs>
        <path id="DejaVuSans-55" d="M 556 4666 
L 1191 4666 
L 1191 1831 
Q 1191 1081 1462 751 
Q 1734 422 2344 422 
Q 2950 422 3222 751 
Q 3494 1081 3494 1831 
L 3494 4666 
L 4128 4666 
L 4128 1753 
Q 4128 841 3676 375 
Q 3225 -91 2344 -91 
Q 1459 -91 1007 375 
Q 556 841 556 1753 
L 556 4666 
z
" transform="scale(0.015625)"/>
        <path id="DejaVuSans-53" d="M 3425 4513 
L 3425 3897 
Q 3066 4069 2747 4153 
Q 2428 4238 2131 4238 
Q 1616 4238 1336 4038 
Q 1056 3838 1056 3469 
Q 1056 3159 1242 3001 
Q 1428 2844 1947 2747 
L 2328 2669 
Q 3034 2534 3370 2195 
Q 3706 1856 3706 1288 
Q 3706 609 3251 259 
Q 2797 -91 1919 -91 
Q 1588 -91 1214 -16 
Q 841 59 441 206 
L 441 856 
Q 825 641 1194 531 
Q 1563 422 1919 422 
Q 2459 422 2753 634 
Q 3047 847 3047 1241 
Q 3047 1584 2836 1778 
Q 2625 1972 2144 2069 
L 1759 2144 
Q 1053 2284 737 2584 
Q 422 2884 422 3419 
Q 422 4038 858 4394 
Q 1294 4750 2059 4750 
Q 2388 4750 2728 4690 
Q 3069 4631 3425 4513 
z
" transform="scale(0.015625)"/>
        <path id="DejaVuSans-4d" d="M 628 4666 
L 1569 4666 
L 2759 1491 
L 3956 4666 
L 4897 4666 
L 4897 0 
L 4281 0 
L 4281 4097 
L 3078 897 
L 2444 897 
L 1241 4097 
L 1241 0 
L 628 0 
L 628 4666 
z
" transform="scale(0.015625)"/>
        <path id="DejaVuSans-45" d="M 628 4666 
L 3578 4666 
L 3578 4134 
L 1259 4134 
L 1259 2753 
L 3481 2753 
L 3481 2222 
L 1259 2222 
L 1259 531 
L 3634 531 
L 3634 0 
L 628 0 
L 628 4666 
z
" transform="scale(0.015625)"/>
       </defs>
       <use xlink:href="#DejaVuSans-55"/>
       <use xlink:href="#DejaVuSans-53" x="73.193359"/>
       <use xlink:href="#DejaVuSans-4d" x="136.669922"/>
       <use xlink:href="#DejaVuSans-45" x="222.949219"/>
      </g>
     </g>
    </g>
    <g id="xtick_2">
     <g id="line2d_2">
      <g>
       <use xlink:href="#m53eaa36148" x="131.699539" y="371.106" style="fill: #262626; stroke: #262626; stroke-width: 0.8"/>
      </g>
     </g>
     <g id="text_2">
      <!-- BOSA -->
      <g style="fill: #696969" transform="translate(135.010789 423.12725) rotate(-90) scale(0.12 -0.12)">
       <defs>
        <path id="DejaVuSans-42" d="M 1259 2228 
L 1259 519 
L 2272 519 
Q 2781 519 3026 730 
Q 3272 941 3272 1375 
Q 3272 1813 3026 2020 
Q 2781 2228 2272 2228 
L 1259 2228 
z
M 1259 4147 
L 1259 2741 
L 2194 2741 
Q 2656 2741 2882 2914 
Q 3109 3088 3109 3444 
Q 3109 3797 2882 3972 
Q 2656 4147 2194 4147 
L 1259 4147 
z
M 628 4666 
L 2241 4666 
Q 2963 4666 3353 4366 
Q 3744 4066 3744 3513 
Q 3744 3084 3544 2831 
Q 3344 2578 2956 2516 
Q 3422 2416 3680 2098 
Q 3938 1781 3938 1306 
Q 3938 681 3513 340 
Q 3088 0 2303 0 
L 628 0 
L 628 4666 
z
" transform="scale(0.015625)"/>
        <path id="DejaVuSans-4f" d="M 2522 4238 
Q 1834 4238 1429 3725 
Q 1025 3213 1025 2328 
Q 1025 1447 1429 934 
Q 1834 422 2522 422 
Q 3209 422 3611 934 
Q 4013 1447 4013 2328 
Q 4013 3213 3611 3725 
Q 3209 4238 2522 4238 
z
M 2522 4750 
Q 3503 4750 4090 4092 
Q 4678 3434 4678 2328 
Q 4678 1225 4090 567 
Q 3503 -91 2522 -91 
Q 1538 -91 948 565 
Q 359 1222 359 2328 
Q 359 3434 948 4092 
Q 1538 4750 2522 4750 
z
" transform="scale(0.015625)"/>
        <path id="DejaVuSans-41" d="M 2188 4044 
L 1331 1722 
L 3047 1722 
L 2188 4044 
z
M 1831 4666 
L 2547 4666 
L 4325 0 
L 3669 0 
L 3244 1197 
L 1141 1197 
L 716 0 
L 50 0 
L 1831 4666 
z
" transform="scale(0.015625)"/>
       </defs>
       <use xlink:href="#DejaVuSans-42"/>
       <use xlink:href="#DejaVuSans-4f" x="66.853516"/>
       <use xlink:href="#DejaVuSans-53" x="145.564453"/>
       <use xlink:href="#DejaVuSans-41" x="210.916016"/>
      </g>
     </g>
    </g>
    <g id="xtick_3">
     <g id="line2d_3">
      <g>
       <use xlink:href="#m53eaa36148" x="168.120066" y="371.106" style="fill: #262626; stroke: #262626; stroke-width: 0.8"/>
      </g>
     </g>
     <g id="text_3">
      <!-- CIUDAD BOLIVAR -->
      <g style="fill: #696969" transform="translate(171.431316 492.286625) rotate(-90) scale(0.12 -0.12)">
       <defs>
        <path id="DejaVuSans-43" d="M 4122 4306 
L 4122 3641 
Q 3803 3938 3442 4084 
Q 3081 4231 2675 4231 
Q 1875 4231 1450 3742 
Q 1025 3253 1025 2328 
Q 1025 1406 1450 917 
Q 1875 428 2675 428 
Q 3081 428 3442 575 
Q 3803 722 4122 1019 
L 4122 359 
Q 3791 134 3420 21 
Q 3050 -91 2638 -91 
Q 1578 -91 968 557 
Q 359 1206 359 2328 
Q 359 3453 968 4101 
Q 1578 4750 2638 4750 
Q 3056 4750 3426 4639 
Q 3797 4528 4122 4306 
z
" transform="scale(0.015625)"/>
        <path id="DejaVuSans-49" d="M 628 4666 
L 1259 4666 
L 1259 0 
L 628 0 
L 628 4666 
z
" transform="scale(0.015625)"/>
        <path id="DejaVuSans-44" d="M 1259 4147 
L 1259 519 
L 2022 519 
Q 2988 519 3436 956 
Q 3884 1394 3884 2338 
Q 3884 3275 3436 3711 
Q 2988 4147 2022 4147 
L 1259 4147 
z
M 628 4666 
L 1925 4666 
Q 3281 4666 3915 4102 
Q 4550 3538 4550 2338 
Q 4550 1131 3912 565 
Q 3275 0 1925 0 
L 628 0 
L 628 4666 
z
" transform="scale(0.015625)"/>
        <path id="DejaVuSans-20" transform="scale(0.015625)"/>
        <path id="DejaVuSans-4c" d="M 628 4666 
L 1259 4666 
L 1259 531 
L 3531 531 
L 3531 0 
L 628 0 
L 628 4666 
z
" transform="scale(0.015625)"/>
        <path id="DejaVuSans-56" d="M 1831 0 
L 50 4666 
L 709 4666 
L 2188 738 
L 3669 4666 
L 4325 4666 
L 2547 0 
L 1831 0 
z
" transform="scale(0.015625)"/>
        <path id="DejaVuSans-52" d="M 2841 2188 
Q 3044 2119 3236 1894 
Q 3428 1669 3622 1275 
L 4263 0 
L 3584 0 
L 2988 1197 
Q 2756 1666 2539 1819 
Q 2322 1972 1947 1972 
L 1259 1972 
L 1259 0 
L 628 0 
L 628 4666 
L 2053 4666 
Q 2853 4666 3247 4331 
Q 3641 3997 3641 3322 
Q 3641 2881 3436 2590 
Q 3231 2300 2841 2188 
z
M 1259 4147 
L 1259 2491 
L 2053 2491 
Q 2509 2491 2742 2702 
Q 2975 2913 2975 3322 
Q 2975 3731 2742 3939 
Q 2509 4147 2053 4147 
L 1259 4147 
z
" transform="scale(0.015625)"/>
       </defs>
       <use xlink:href="#DejaVuSans-43"/>
       <use xlink:href="#DejaVuSans-49" x="69.824219"/>
       <use xlink:href="#DejaVuSans-55" x="99.316406"/>
       <use xlink:href="#DejaVuSans-44" x="172.509766"/>
       <use xlink:href="#DejaVuSans-41" x="247.761719"/>
       <use xlink:href="#DejaVuSans-44" x="316.169922"/>
       <use xlink:href="#DejaVuSans-20" x="393.171875"/>
       <use xlink:href="#DejaVuSans-42" x="424.958984"/>
       <use xlink:href="#DejaVuSans-4f" x="491.8125"/>
       <use xlink:href="#DejaVuSans-4c" x="570.523438"/>
       <use xlink:href="#DejaVuSans-49" x="626.236328"/>
       <use xlink:href="#DejaVuSans-56" x="655.728516"/>
       <use xlink:href="#DejaVuSans-41" x="717.761719"/>
       <use xlink:href="#DejaVuSans-52" x="786.169922"/>
      </g>
     </g>
    </g>
    <g id="xtick_4">
     <g id="line2d_4">
      <g>
       <use xlink:href="#m53eaa36148" x="204.540592" y="371.106" style="fill: #262626; stroke: #262626; stroke-width: 0.8"/>
      </g>
     </g>
     <g id="text_4">
      <!-- SAN CRISTOBAL -->
      <g style="fill: #696969" transform="translate(207.851842 486.2285) rotate(-90) scale(0.12 -0.12)">
       <defs>
        <path id="DejaVuSans-4e" d="M 628 4666 
L 1478 4666 
L 3547 763 
L 3547 4666 
L 4159 4666 
L 4159 0 
L 3309 0 
L 1241 3903 
L 1241 0 
L 628 0 
L 628 4666 
z
" transform="scale(0.015625)"/>
        <path id="DejaVuSans-54" d="M -19 4666 
L 3928 4666 
L 3928 4134 
L 2272 4134 
L 2272 0 
L 1638 0 
L 1638 4134 
L -19 4134 
L -19 4666 
z
" transform="scale(0.015625)"/>
       </defs>
       <use xlink:href="#DejaVuSans-53"/>
       <use xlink:href="#DejaVuSans-41" x="65.351562"/>
       <use xlink:href="#DejaVuSans-4e" x="133.759766"/>
       <use xlink:href="#DejaVuSans-20" x="208.564453"/>
       <use xlink:href="#DejaVuSans-43" x="240.351562"/>
       <use xlink:href="#DejaVuSans-52" x="310.175781"/>
       <use xlink:href="#DejaVuSans-49" x="379.658203"/>
       <use xlink:href="#DejaVuSans-53" x="409.150391"/>
       <use xlink:href="#DejaVuSans-54" x="472.626953"/>
       <use xlink:href="#DejaVuSans-4f" x="533.710938"/>
       <use xlink:href="#DejaVuSans-42" x="612.421875"/>
       <use xlink:href="#DejaVuSans-41" x="681.025391"/>
       <use xlink:href="#DejaVuSans-4c" x="749.433594"/>
      </g>
     </g>
    </g>
    <g id="xtick_5">
     <g id="line2d_5">
      <g>
       <use xlink:href="#m53eaa36148" x="240.961118" y="371.106" style="fill: #262626; stroke: #262626; stroke-width: 0.8"/>
      </g>
     </g>
     <g id="text_5">
      <!-- RAFAEL URIBE URIBE -->
      <g style="fill: #696969" transform="translate(244.272368 514.53725) rotate(-90) scale(0.12 -0.12)">
       <defs>
        <path id="DejaVuSans-46" d="M 628 4666 
L 3309 4666 
L 3309 4134 
L 1259 4134 
L 1259 2759 
L 3109 2759 
L 3109 2228 
L 1259 2228 
L 1259 0 
L 628 0 
L 628 4666 
z
" transform="scale(0.015625)"/>
       </defs>
       <use xlink:href="#DejaVuSans-52"/>
       <use xlink:href="#DejaVuSans-41" x="65.482422"/>
       <use xlink:href="#DejaVuSans-46" x="133.890625"/>
       <use xlink:href="#DejaVuSans-41" x="182.285156"/>
       <use xlink:href="#DejaVuSans-45" x="250.693359"/>
       <use xlink:href="#DejaVuSans-4c" x="313.876953"/>
       <use xlink:href="#DejaVuSans-20" x="369.589844"/>
       <use xlink:href="#DejaVuSans-55" x="401.376953"/>
       <use xlink:href="#DejaVuSans-52" x="474.570312"/>
       <use xlink:href="#DejaVuSans-49" x="544.052734"/>
       <use xlink:href="#DejaVuSans-42" x="573.544922"/>
       <use xlink:href="#DejaVuSans-45" x="642.148438"/>
       <use xlink:href="#DejaVuSans-20" x="705.332031"/>
       <use xlink:href="#DejaVuSans-55" x="737.119141"/>
       <use xlink:href="#DejaVuSans-52" x="810.3125"/>
       <use xlink:href="#DejaVuSans-49" x="879.794922"/>
       <use xlink:href="#DejaVuSans-42" x="909.287109"/>
       <use xlink:href="#DejaVuSans-45" x="977.890625"/>
      </g>
     </g>
    </g>
    <g id="xtick_6">
     <g id="line2d_6">
      <g>
       <use xlink:href="#m53eaa36148" x="277.381645" y="371.106" style="fill: #262626; stroke: #262626; stroke-width: 0.8"/>
      </g>
     </g>
     <g id="text_6">
      <!-- SUBA -->
      <g style="fill: #696969" transform="translate(280.692895 422.4485) rotate(-90) scale(0.12 -0.12)">
       <use xlink:href="#DejaVuSans-53"/>
       <use xlink:href="#DejaVuSans-55" x="63.476562"/>
       <use xlink:href="#DejaVuSans-42" x="136.669922"/>
       <use xlink:href="#DejaVuSans-41" x="205.273438"/>
      </g>
     </g>
    </g>
    <g id="xtick_7">
     <g id="line2d_7">
      <g>
       <use xlink:href="#m53eaa36148" x="313.802171" y="371.106" style="fill: #262626; stroke: #262626; stroke-width: 0.8"/>
      </g>
     </g>
     <g id="text_7">
      <!-- KENNEDY -->
      <g style="fill: #696969" transform="translate(317.113421 446.50475) rotate(-90) scale(0.12 -0.12)">
       <defs>
        <path id="DejaVuSans-4b" d="M 628 4666 
L 1259 4666 
L 1259 2694 
L 3353 4666 
L 4166 4666 
L 1850 2491 
L 4331 0 
L 3500 0 
L 1259 2247 
L 1259 0 
L 628 0 
L 628 4666 
z
" transform="scale(0.015625)"/>
        <path id="DejaVuSans-59" d="M -13 4666 
L 666 4666 
L 1959 2747 
L 3244 4666 
L 3922 4666 
L 2272 2222 
L 2272 0 
L 1638 0 
L 1638 2222 
L -13 4666 
z
" transform="scale(0.015625)"/>
       </defs>
       <use xlink:href="#DejaVuSans-4b"/>
       <use xlink:href="#DejaVuSans-45" x="65.576172"/>
       <use xlink:href="#DejaVuSans-4e" x="128.759766"/>
       <use xlink:href="#DejaVuSans-4e" x="203.564453"/>
       <use xlink:href="#DejaVuSans-45" x="278.369141"/>
       <use xlink:href="#DejaVuSans-44" x="341.552734"/>
       <use xlink:href="#DejaVuSans-59" x="413.054688"/>
      </g>
     </g>
    </g>
    <g id="xtick_8">
     <g id="line2d_8">
      <g>
       <use xlink:href="#m53eaa36148" x="350.222697" y="371.106" style="fill: #262626; stroke: #262626; stroke-width: 0.8"/>
      </g>
     </g>
     <g id="text_8">
      <!-- TUNJUELITO -->
      <g style="fill: #696969" transform="translate(353.533947 461.60225) rotate(-90) scale(0.12 -0.12)">
       <defs>
        <path id="DejaVuSans-4a" d="M 628 4666 
L 1259 4666 
L 1259 325 
Q 1259 -519 939 -900 
Q 619 -1281 -91 -1281 
L -331 -1281 
L -331 -750 
L -134 -750 
Q 284 -750 456 -515 
Q 628 -281 628 325 
L 628 4666 
z
" transform="scale(0.015625)"/>
       </defs>
       <use xlink:href="#DejaVuSans-54"/>
       <use xlink:href="#DejaVuSans-55" x="61.083984"/>
       <use xlink:href="#DejaVuSans-4e" x="134.277344"/>
       <use xlink:href="#DejaVuSans-4a" x="209.082031"/>
       <use xlink:href="#DejaVuSans-55" x="238.574219"/>
       <use xlink:href="#DejaVuSans-45" x="311.767578"/>
       <use xlink:href="#DejaVuSans-4c" x="374.951172"/>
       <use xlink:href="#DejaVuSans-49" x="430.664062"/>
       <use xlink:href="#DejaVuSans-54" x="460.15625"/>
       <use xlink:href="#DejaVuSans-4f" x="521.240234"/>
      </g>
     </g>
    </g>
    <g id="xtick_9">
     <g id="line2d_9">
      <g>
       <use xlink:href="#m53eaa36148" x="386.643224" y="371.106" style="fill: #262626; stroke: #262626; stroke-width: 0.8"/>
      </g>
     </g>
     <g id="text_9">
      <!-- USAQUEN -->
      <g style="fill: #696969" transform="translate(389.954474 449.019125) rotate(-90) scale(0.12 -0.12)">
       <defs>
        <path id="DejaVuSans-51" d="M 2522 4238 
Q 1834 4238 1429 3725 
Q 1025 3213 1025 2328 
Q 1025 1447 1429 934 
Q 1834 422 2522 422 
Q 3209 422 3611 934 
Q 4013 1447 4013 2328 
Q 4013 3213 3611 3725 
Q 3209 4238 2522 4238 
z
M 3406 84 
L 4238 -825 
L 3475 -825 
L 2784 -78 
Q 2681 -84 2626 -87 
Q 2572 -91 2522 -91 
Q 1538 -91 948 567 
Q 359 1225 359 2328 
Q 359 3434 948 4092 
Q 1538 4750 2522 4750 
Q 3503 4750 4090 4092 
Q 4678 3434 4678 2328 
Q 4678 1516 4351 937 
Q 4025 359 3406 84 
z
" transform="scale(0.015625)"/>
       </defs>
       <use xlink:href="#DejaVuSans-55"/>
       <use xlink:href="#DejaVuSans-53" x="73.193359"/>
       <use xlink:href="#DejaVuSans-41" x="138.544922"/>
       <use xlink:href="#DejaVuSans-51" x="205.203125"/>
       <use xlink:href="#DejaVuSans-55" x="283.914062"/>
       <use xlink:href="#DejaVuSans-45" x="357.107422"/>
       <use xlink:href="#DejaVuSans-4e" x="420.291016"/>
      </g>
     </g>
    </g>
    <g id="xtick_10">
     <g id="line2d_10">
      <g>
       <use xlink:href="#m53eaa36148" x="423.06375" y="371.106" style="fill: #262626; stroke: #262626; stroke-width: 0.8"/>
      </g>
     </g>
     <g id="text_10">
      <!-- ENGATIVA -->
      <g style="fill: #696969" transform="translate(426.375 449.26475) rotate(-90) scale(0.12 -0.12)">
       <defs>
        <path id="DejaVuSans-47" d="M 3809 666 
L 3809 1919 
L 2778 1919 
L 2778 2438 
L 4434 2438 
L 4434 434 
Q 4069 175 3628 42 
Q 3188 -91 2688 -91 
Q 1594 -91 976 548 
Q 359 1188 359 2328 
Q 359 3472 976 4111 
Q 1594 4750 2688 4750 
Q 3144 4750 3555 4637 
Q 3966 4525 4313 4306 
L 4313 3634 
Q 3963 3931 3569 4081 
Q 3175 4231 2741 4231 
Q 1884 4231 1454 3753 
Q 1025 3275 1025 2328 
Q 1025 1384 1454 906 
Q 1884 428 2741 428 
Q 3075 428 3337 486 
Q 3600 544 3809 666 
z
" transform="scale(0.015625)"/>
       </defs>
       <use xlink:href="#DejaVuSans-45"/>
       <use xlink:href="#DejaVuSans-4e" x="63.183594"/>
       <use xlink:href="#DejaVuSans-47" x="137.988281"/>
       <use xlink:href="#DejaVuSans-41" x="215.478516"/>
       <use xlink:href="#DejaVuSans-54" x="276.136719"/>
       <use xlink:href="#DejaVuSans-49" x="337.220703"/>
       <use xlink:href="#DejaVuSans-56" x="366.712891"/>
       <use xlink:href="#DejaVuSans-41" x="428.746094"/>
      </g>
     </g>
    </g>
    <g id="xtick_11">
     <g id="line2d_11">
      <g>
       <use xlink:href="#m53eaa36148" x="459.484276" y="371.106" style="fill: #262626; stroke: #262626; stroke-width: 0.8"/>
      </g>
     </g>
     <g id="text_11">
      <!-- FONTIBON -->
      <g style="fill: #696969" transform="translate(462.795526 452.247875) rotate(-90) scale(0.12 -0.12)">
       <use xlink:href="#DejaVuSans-46"/>
       <use xlink:href="#DejaVuSans-4f" x="57.519531"/>
       <use xlink:href="#DejaVuSans-4e" x="136.230469"/>
       <use xlink:href="#DejaVuSans-54" x="211.035156"/>
       <use xlink:href="#DejaVuSans-49" x="272.119141"/>
       <use xlink:href="#DejaVuSans-42" x="301.611328"/>
       <use xlink:href="#DejaVuSans-4f" x="368.464844"/>
       <use xlink:href="#DejaVuSans-4e" x="447.175781"/>
      </g>
     </g>
    </g>
    <g id="xtick_12">
     <g id="line2d_12">
      <g>
       <use xlink:href="#m53eaa36148" x="495.904803" y="371.106" style="fill: #262626; stroke: #262626; stroke-width: 0.8"/>
      </g>
     </g>
     <g id="text_12">
      <!-- PUENTE ARANDA -->
      <g style="fill: #696969" transform="translate(499.216053 491.401625) rotate(-90) scale(0.12 -0.12)">
       <defs>
        <path id="DejaVuSans-50" d="M 1259 4147 
L 1259 2394 
L 2053 2394 
Q 2494 2394 2734 2622 
Q 2975 2850 2975 3272 
Q 2975 3691 2734 3919 
Q 2494 4147 2053 4147 
L 1259 4147 
z
M 628 4666 
L 2053 4666 
Q 2838 4666 3239 4311 
Q 3641 3956 3641 3272 
Q 3641 2581 3239 2228 
Q 2838 1875 2053 1875 
L 1259 1875 
L 1259 0 
L 628 0 
L 628 4666 
z
" transform="scale(0.015625)"/>
       </defs>
       <use xlink:href="#DejaVuSans-50"/>
       <use xlink:href="#DejaVuSans-55" x="60.302734"/>
       <use xlink:href="#DejaVuSans-45" x="133.496094"/>
       <use xlink:href="#DejaVuSans-4e" x="196.679688"/>
       <use xlink:href="#DejaVuSans-54" x="271.484375"/>
       <use xlink:href="#DejaVuSans-45" x="332.568359"/>
       <use xlink:href="#DejaVuSans-20" x="395.751953"/>
       <use xlink:href="#DejaVuSans-41" x="427.539062"/>
       <use xlink:href="#DejaVuSans-52" x="495.947266"/>
       <use xlink:href="#DejaVuSans-41" x="561.429688"/>
       <use xlink:href="#DejaVuSans-4e" x="629.837891"/>
       <use xlink:href="#DejaVuSans-44" x="704.642578"/>
       <use xlink:href="#DejaVuSans-41" x="779.894531"/>
      </g>
     </g>
    </g>
    <g id="xtick_13">
     <g id="line2d_13">
      <g>
       <use xlink:href="#m53eaa36148" x="532.325329" y="371.106" style="fill: #262626; stroke: #262626; stroke-width: 0.8"/>
      </g>
     </g>
     <g id="text_13">
      <!-- ANTONIO NARINO -->
      <g style="fill: #696969" transform="translate(535.636579 496.8335) rotate(-90) scale(0.12 -0.12)">
       <use xlink:href="#DejaVuSans-41"/>
       <use xlink:href="#DejaVuSans-4e" x="68.408203"/>
       <use xlink:href="#DejaVuSans-54" x="143.212891"/>
       <use xlink:href="#DejaVuSans-4f" x="204.296875"/>
       <use xlink:href="#DejaVuSans-4e" x="283.007812"/>
       <use xlink:href="#DejaVuSans-49" x="357.8125"/>
       <use xlink:href="#DejaVuSans-4f" x="387.304688"/>
       <use xlink:href="#DejaVuSans-20" x="466.015625"/>
       <use xlink:href="#DejaVuSans-4e" x="497.802734"/>
       <use xlink:href="#DejaVuSans-41" x="572.607422"/>
       <use xlink:href="#DejaVuSans-52" x="641.015625"/>
       <use xlink:href="#DejaVuSans-49" x="710.498047"/>
       <use xlink:href="#DejaVuSans-4e" x="739.990234"/>
       <use xlink:href="#DejaVuSans-4f" x="814.794922"/>
      </g>
     </g>
    </g>
    <g id="xtick_14">
     <g id="line2d_14">
      <g>
       <use xlink:href="#m53eaa36148" x="568.745855" y="371.106" style="fill: #262626; stroke: #262626; stroke-width: 0.8"/>
      </g>
     </g>
     <g id="text_14">
      <!-- BARRIOS UNIDOS -->
      <g style="fill: #696969" transform="translate(572.057105 494.746625) rotate(-90) scale(0.12 -0.12)">
       <use xlink:href="#DejaVuSans-42"/>
       <use xlink:href="#DejaVuSans-41" x="68.603516"/>
       <use xlink:href="#DejaVuSans-52" x="137.011719"/>
       <use xlink:href="#DejaVuSans-52" x="206.494141"/>
       <use xlink:href="#DejaVuSans-49" x="275.976562"/>
       <use xlink:href="#DejaVuSans-4f" x="305.46875"/>
       <use xlink:href="#DejaVuSans-53" x="384.179688"/>
       <use xlink:href="#DejaVuSans-20" x="447.65625"/>
       <use xlink:href="#DejaVuSans-55" x="479.443359"/>
       <use xlink:href="#DejaVuSans-4e" x="552.636719"/>
       <use xlink:href="#DejaVuSans-49" x="627.441406"/>
       <use xlink:href="#DejaVuSans-44" x="656.933594"/>
       <use xlink:href="#DejaVuSans-4f" x="733.935547"/>
       <use xlink:href="#DejaVuSans-53" x="812.646484"/>
      </g>
     </g>
    </g>
    <g id="xtick_15">
     <g id="line2d_15">
      <g>
       <use xlink:href="#m53eaa36148" x="605.166382" y="371.106" style="fill: #262626; stroke: #262626; stroke-width: 0.8"/>
      </g>
     </g>
     <g id="text_15">
      <!-- TEUSAQUILLO -->
      <g style="fill: #696969" transform="translate(608.477632 473.29475) rotate(-90) scale(0.12 -0.12)">
       <use xlink:href="#DejaVuSans-54"/>
       <use xlink:href="#DejaVuSans-45" x="61.083984"/>
       <use xlink:href="#DejaVuSans-55" x="124.267578"/>
       <use xlink:href="#DejaVuSans-53" x="197.460938"/>
       <use xlink:href="#DejaVuSans-41" x="262.8125"/>
       <use xlink:href="#DejaVuSans-51" x="329.470703"/>
       <use xlink:href="#DejaVuSans-55" x="408.181641"/>
       <use xlink:href="#DejaVuSans-49" x="481.375"/>
       <use xlink:href="#DejaVuSans-4c" x="510.867188"/>
       <use xlink:href="#DejaVuSans-4c" x="566.580078"/>
       <use xlink:href="#DejaVuSans-4f" x="618.667969"/>
      </g>
     </g>
    </g>
    <g id="xtick_16">
     <g id="line2d_16">
      <g>
       <use xlink:href="#m53eaa36148" x="641.586908" y="371.106" style="fill: #262626; stroke: #262626; stroke-width: 0.8"/>
      </g>
     </g>
     <g id="text_16">
      <!-- CHAPINERO -->
      <g style="fill: #696969" transform="translate(644.898158 460.3385) rotate(-90) scale(0.12 -0.12)">
       <defs>
        <path id="DejaVuSans-48" d="M 628 4666 
L 1259 4666 
L 1259 2753 
L 3553 2753 
L 3553 4666 
L 4184 4666 
L 4184 0 
L 3553 0 
L 3553 2222 
L 1259 2222 
L 1259 0 
L 628 0 
L 628 4666 
z
" transform="scale(0.015625)"/>
       </defs>
       <use xlink:href="#DejaVuSans-43"/>
       <use xlink:href="#DejaVuSans-48" x="69.824219"/>
       <use xlink:href="#DejaVuSans-41" x="145.019531"/>
       <use xlink:href="#DejaVuSans-50" x="213.427734"/>
       <use xlink:href="#DejaVuSans-49" x="273.730469"/>
       <use xlink:href="#DejaVuSans-4e" x="303.222656"/>
       <use xlink:href="#DejaVuSans-45" x="378.027344"/>
       <use xlink:href="#DejaVuSans-52" x="441.210938"/>
       <use xlink:href="#DejaVuSans-4f" x="510.693359"/>
      </g>
     </g>
    </g>
    <g id="xtick_17">
     <g id="line2d_17">
      <g>
       <use xlink:href="#m53eaa36148" x="678.007434" y="371.106" style="fill: #262626; stroke: #262626; stroke-width: 0.8"/>
      </g>
     </g>
     <g id="text_17">
      <!-- SANTA FE -->
      <g style="fill: #696969" transform="translate(681.318684 447.541625) rotate(-90) scale(0.12 -0.12)">
       <use xlink:href="#DejaVuSans-53"/>
       <use xlink:href="#DejaVuSans-41" x="65.351562"/>
       <use xlink:href="#DejaVuSans-4e" x="133.759766"/>
       <use xlink:href="#DejaVuSans-54" x="208.564453"/>
       <use xlink:href="#DejaVuSans-41" x="261.898438"/>
       <use xlink:href="#DejaVuSans-20" x="330.306641"/>
       <use xlink:href="#DejaVuSans-46" x="362.09375"/>
       <use xlink:href="#DejaVuSans-45" x="419.613281"/>
      </g>
     </g>
    </g>
    <g id="xtick_18">
     <g id="line2d_18">
      <g>
       <use xlink:href="#m53eaa36148" x="714.427961" y="371.106" style="fill: #262626; stroke: #262626; stroke-width: 0.8"/>
      </g>
     </g>
     <g id="text_18">
      <!-- CANDELARIA -->
      <g style="fill: #696969" transform="translate(717.739211 467.246) rotate(-90) scale(0.12 -0.12)">
       <use xlink:href="#DejaVuSans-43"/>
       <use xlink:href="#DejaVuSans-41" x="69.824219"/>
       <use xlink:href="#DejaVuSans-4e" x="138.232422"/>
       <use xlink:href="#DejaVuSans-44" x="213.037109"/>
       <use xlink:href="#DejaVuSans-45" x="290.039062"/>
       <use xlink:href="#DejaVuSans-4c" x="353.222656"/>
       <use xlink:href="#DejaVuSans-41" x="411.185547"/>
       <use xlink:href="#DejaVuSans-52" x="479.59375"/>
       <use xlink:href="#DejaVuSans-49" x="549.076172"/>
       <use xlink:href="#DejaVuSans-41" x="578.568359"/>
      </g>
     </g>
    </g>
    <g id="xtick_19">
     <g id="line2d_19">
      <g>
       <use xlink:href="#m53eaa36148" x="750.848487" y="371.106" style="fill: #262626; stroke: #262626; stroke-width: 0.8"/>
      </g>
     </g>
     <g id="text_19">
      <!-- LOS MARTIRES -->
      <g style="fill: #696969" transform="translate(754.159737 477.174125) rotate(-90) scale(0.12 -0.12)">
       <use xlink:href="#DejaVuSans-4c"/>
       <use xlink:href="#DejaVuSans-4f" x="52.087891"/>
       <use xlink:href="#DejaVuSans-53" x="130.798828"/>
       <use xlink:href="#DejaVuSans-20" x="194.275391"/>
       <use xlink:href="#DejaVuSans-4d" x="226.0625"/>
       <use xlink:href="#DejaVuSans-41" x="312.341797"/>
       <use xlink:href="#DejaVuSans-52" x="380.75"/>
       <use xlink:href="#DejaVuSans-54" x="442.982422"/>
       <use xlink:href="#DejaVuSans-49" x="504.066406"/>
       <use xlink:href="#DejaVuSans-52" x="533.558594"/>
       <use xlink:href="#DejaVuSans-45" x="603.041016"/>
       <use xlink:href="#DejaVuSans-53" x="666.224609"/>
      </g>
     </g>
    </g>
   </g>
   <g id="matplotlib.axis_2">
    <g id="ytick_1">
     <g id="line2d_20">
      <path d="M 77.06875 371.106 
L 769.05875 371.106 
" clip-path="url(#p06cb15e16c)" style="fill: none; stroke-dasharray: 2.96,1.28; stroke-dashoffset: 0; stroke: #cccccc; stroke-width: 0.8"/>
     </g>
     <g id="line2d_21">
      <defs>
       <path id="m2cc9cca831" d="M 0 0 
L -3.5 0 
" style="stroke: #262626; stroke-width: 0.8"/>
      </defs>
      <g>
       <use xlink:href="#m2cc9cca831" x="77.06875" y="371.106" style="fill: #262626; stroke: #262626; stroke-width: 0.8"/>
      </g>
     </g>
     <g id="text_20">
      <!-- 0 -->
      <g style="fill: #696969" transform="translate(62.43375 375.665062) scale(0.12 -0.12)">
       <defs>
        <path id="DejaVuSans-30" d="M 2034 4250 
Q 1547 4250 1301 3770 
Q 1056 3291 1056 2328 
Q 1056 1369 1301 889 
Q 1547 409 2034 409 
Q 2525 409 2770 889 
Q 3016 1369 3016 2328 
Q 3016 3291 2770 3770 
Q 2525 4250 2034 4250 
z
M 2034 4750 
Q 2819 4750 3233 4129 
Q 3647 3509 3647 2328 
Q 3647 1150 3233 529 
Q 2819 -91 2034 -91 
Q 1250 -91 836 529 
Q 422 1150 422 2328 
Q 422 3509 836 4129 
Q 1250 4750 2034 4750 
z
" transform="scale(0.015625)"/>
       </defs>
       <use xlink:href="#DejaVuSans-30"/>
      </g>
     </g>
    </g>
    <g id="ytick_2">
     <g id="line2d_22">
      <path d="M 77.06875 329.096649 
L 769.05875 329.096649 
" clip-path="url(#p06cb15e16c)" style="fill: none; stroke-dasharray: 2.96,1.28; stroke-dashoffset: 0; stroke: #cccccc; stroke-width: 0.8"/>
     </g>
     <g id="line2d_23">
      <g>
       <use xlink:href="#m2cc9cca831" x="77.06875" y="329.096649" style="fill: #262626; stroke: #262626; stroke-width: 0.8"/>
      </g>
     </g>
     <g id="text_21">
      <!-- 1.0 million -->
      <g style="fill: #696969" transform="translate(7.2 333.655712) scale(0.12 -0.12)">
       <defs>
        <path id="DejaVuSans-31" d="M 794 531 
L 1825 531 
L 1825 4091 
L 703 3866 
L 703 4441 
L 1819 4666 
L 2450 4666 
L 2450 531 
L 3481 531 
L 3481 0 
L 794 0 
L 794 531 
z
" transform="scale(0.015625)"/>
        <path id="DejaVuSans-2e" d="M 684 794 
L 1344 794 
L 1344 0 
L 684 0 
L 684 794 
z
" transform="scale(0.015625)"/>
        <path id="DejaVuSans-6d" d="M 3328 2828 
Q 3544 3216 3844 3400 
Q 4144 3584 4550 3584 
Q 5097 3584 5394 3201 
Q 5691 2819 5691 2113 
L 5691 0 
L 5113 0 
L 5113 2094 
Q 5113 2597 4934 2840 
Q 4756 3084 4391 3084 
Q 3944 3084 3684 2787 
Q 3425 2491 3425 1978 
L 3425 0 
L 2847 0 
L 2847 2094 
Q 2847 2600 2669 2842 
Q 2491 3084 2119 3084 
Q 1678 3084 1418 2786 
Q 1159 2488 1159 1978 
L 1159 0 
L 581 0 
L 581 3500 
L 1159 3500 
L 1159 2956 
Q 1356 3278 1631 3431 
Q 1906 3584 2284 3584 
Q 2666 3584 2933 3390 
Q 3200 3197 3328 2828 
z
" transform="scale(0.015625)"/>
        <path id="DejaVuSans-69" d="M 603 3500 
L 1178 3500 
L 1178 0 
L 603 0 
L 603 3500 
z
M 603 4863 
L 1178 4863 
L 1178 4134 
L 603 4134 
L 603 4863 
z
" transform="scale(0.015625)"/>
        <path id="DejaVuSans-6c" d="M 603 4863 
L 1178 4863 
L 1178 0 
L 603 0 
L 603 4863 
z
" transform="scale(0.015625)"/>
        <path id="DejaVuSans-6f" d="M 1959 3097 
Q 1497 3097 1228 2736 
Q 959 2375 959 1747 
Q 959 1119 1226 758 
Q 1494 397 1959 397 
Q 2419 397 2687 759 
Q 2956 1122 2956 1747 
Q 2956 2369 2687 2733 
Q 2419 3097 1959 3097 
z
M 1959 3584 
Q 2709 3584 3137 3096 
Q 3566 2609 3566 1747 
Q 3566 888 3137 398 
Q 2709 -91 1959 -91 
Q 1206 -91 779 398 
Q 353 888 353 1747 
Q 353 2609 779 3096 
Q 1206 3584 1959 3584 
z
" transform="scale(0.015625)"/>
        <path id="DejaVuSans-6e" d="M 3513 2113 
L 3513 0 
L 2938 0 
L 2938 2094 
Q 2938 2591 2744 2837 
Q 2550 3084 2163 3084 
Q 1697 3084 1428 2787 
Q 1159 2491 1159 1978 
L 1159 0 
L 581 0 
L 581 3500 
L 1159 3500 
L 1159 2956 
Q 1366 3272 1645 3428 
Q 1925 3584 2291 3584 
Q 2894 3584 3203 3211 
Q 3513 2838 3513 2113 
z
" transform="scale(0.015625)"/>
       </defs>
       <use xlink:href="#DejaVuSans-31"/>
       <use xlink:href="#DejaVuSans-2e" x="63.623047"/>
       <use xlink:href="#DejaVuSans-30" x="95.410156"/>
       <use xlink:href="#DejaVuSans-20" x="159.033203"/>
       <use xlink:href="#DejaVuSans-6d" x="190.820312"/>
       <use xlink:href="#DejaVuSans-69" x="288.232422"/>
       <use xlink:href="#DejaVuSans-6c" x="316.015625"/>
       <use xlink:href="#DejaVuSans-6c" x="343.798828"/>
       <use xlink:href="#DejaVuSans-69" x="371.582031"/>
       <use xlink:href="#DejaVuSans-6f" x="399.365234"/>
       <use xlink:href="#DejaVuSans-6e" x="460.546875"/>
      </g>
     </g>
    </g>
    <g id="ytick_3">
     <g id="line2d_24">
      <path d="M 77.06875 287.087299 
L 769.05875 287.087299 
" clip-path="url(#p06cb15e16c)" style="fill: none; stroke-dasharray: 2.96,1.28; stroke-dashoffset: 0; stroke: #cccccc; stroke-width: 0.8"/>
     </g>
     <g id="line2d_25">
      <g>
       <use xlink:href="#m2cc9cca831" x="77.06875" y="287.087299" style="fill: #262626; stroke: #262626; stroke-width: 0.8"/>
      </g>
     </g>
     <g id="text_22">
      <!-- 2.0 million -->
      <g style="fill: #696969" transform="translate(7.2 291.646361) scale(0.12 -0.12)">
       <defs>
        <path id="DejaVuSans-32" d="M 1228 531 
L 3431 531 
L 3431 0 
L 469 0 
L 469 531 
Q 828 903 1448 1529 
Q 2069 2156 2228 2338 
Q 2531 2678 2651 2914 
Q 2772 3150 2772 3378 
Q 2772 3750 2511 3984 
Q 2250 4219 1831 4219 
Q 1534 4219 1204 4116 
Q 875 4013 500 3803 
L 500 4441 
Q 881 4594 1212 4672 
Q 1544 4750 1819 4750 
Q 2544 4750 2975 4387 
Q 3406 4025 3406 3419 
Q 3406 3131 3298 2873 
Q 3191 2616 2906 2266 
Q 2828 2175 2409 1742 
Q 1991 1309 1228 531 
z
" transform="scale(0.015625)"/>
       </defs>
       <use xlink:href="#DejaVuSans-32"/>
       <use xlink:href="#DejaVuSans-2e" x="63.623047"/>
       <use xlink:href="#DejaVuSans-30" x="95.410156"/>
       <use xlink:href="#DejaVuSans-20" x="159.033203"/>
       <use xlink:href="#DejaVuSans-6d" x="190.820312"/>
       <use xlink:href="#DejaVuSans-69" x="288.232422"/>
       <use xlink:href="#DejaVuSans-6c" x="316.015625"/>
       <use xlink:href="#DejaVuSans-6c" x="343.798828"/>
       <use xlink:href="#DejaVuSans-69" x="371.582031"/>
       <use xlink:href="#DejaVuSans-6f" x="399.365234"/>
       <use xlink:href="#DejaVuSans-6e" x="460.546875"/>
      </g>
     </g>
    </g>
    <g id="ytick_4">
     <g id="line2d_26">
      <path d="M 77.06875 245.077948 
L 769.05875 245.077948 
" clip-path="url(#p06cb15e16c)" style="fill: none; stroke-dasharray: 2.96,1.28; stroke-dashoffset: 0; stroke: #cccccc; stroke-width: 0.8"/>
     </g>
     <g id="line2d_27">
      <g>
       <use xlink:href="#m2cc9cca831" x="77.06875" y="245.077948" style="fill: #262626; stroke: #262626; stroke-width: 0.8"/>
      </g>
     </g>
     <g id="text_23">
      <!-- 3.0 million -->
      <g style="fill: #696969" transform="translate(7.2 249.637011) scale(0.12 -0.12)">
       <defs>
        <path id="DejaVuSans-33" d="M 2597 2516 
Q 3050 2419 3304 2112 
Q 3559 1806 3559 1356 
Q 3559 666 3084 287 
Q 2609 -91 1734 -91 
Q 1441 -91 1130 -33 
Q 819 25 488 141 
L 488 750 
Q 750 597 1062 519 
Q 1375 441 1716 441 
Q 2309 441 2620 675 
Q 2931 909 2931 1356 
Q 2931 1769 2642 2001 
Q 2353 2234 1838 2234 
L 1294 2234 
L 1294 2753 
L 1863 2753 
Q 2328 2753 2575 2939 
Q 2822 3125 2822 3475 
Q 2822 3834 2567 4026 
Q 2313 4219 1838 4219 
Q 1578 4219 1281 4162 
Q 984 4106 628 3988 
L 628 4550 
Q 988 4650 1302 4700 
Q 1616 4750 1894 4750 
Q 2613 4750 3031 4423 
Q 3450 4097 3450 3541 
Q 3450 3153 3228 2886 
Q 3006 2619 2597 2516 
z
" transform="scale(0.015625)"/>
       </defs>
       <use xlink:href="#DejaVuSans-33"/>
       <use xlink:href="#DejaVuSans-2e" x="63.623047"/>
       <use xlink:href="#DejaVuSans-30" x="95.410156"/>
       <use xlink:href="#DejaVuSans-20" x="159.033203"/>
       <use xlink:href="#DejaVuSans-6d" x="190.820312"/>
       <use xlink:href="#DejaVuSans-69" x="288.232422"/>
       <use xlink:href="#DejaVuSans-6c" x="316.015625"/>
       <use xlink:href="#DejaVuSans-6c" x="343.798828"/>
       <use xlink:href="#DejaVuSans-69" x="371.582031"/>
       <use xlink:href="#DejaVuSans-6f" x="399.365234"/>
       <use xlink:href="#DejaVuSans-6e" x="460.546875"/>
      </g>
     </g>
    </g>
    <g id="ytick_5">
     <g id="line2d_28">
      <path d="M 77.06875 203.068597 
L 769.05875 203.068597 
" clip-path="url(#p06cb15e16c)" style="fill: none; stroke-dasharray: 2.96,1.28; stroke-dashoffset: 0; stroke: #cccccc; stroke-width: 0.8"/>
     </g>
     <g id="line2d_29">
      <g>
       <use xlink:href="#m2cc9cca831" x="77.06875" y="203.068597" style="fill: #262626; stroke: #262626; stroke-width: 0.8"/>
      </g>
     </g>
     <g id="text_24">
      <!-- 4.0 million -->
      <g style="fill: #696969" transform="translate(7.2 207.62766) scale(0.12 -0.12)">
       <defs>
        <path id="DejaVuSans-34" d="M 2419 4116 
L 825 1625 
L 2419 1625 
L 2419 4116 
z
M 2253 4666 
L 3047 4666 
L 3047 1625 
L 3713 1625 
L 3713 1100 
L 3047 1100 
L 3047 0 
L 2419 0 
L 2419 1100 
L 313 1100 
L 313 1709 
L 2253 4666 
z
" transform="scale(0.015625)"/>
       </defs>
       <use xlink:href="#DejaVuSans-34"/>
       <use xlink:href="#DejaVuSans-2e" x="63.623047"/>
       <use xlink:href="#DejaVuSans-30" x="95.410156"/>
       <use xlink:href="#DejaVuSans-20" x="159.033203"/>
       <use xlink:href="#DejaVuSans-6d" x="190.820312"/>
       <use xlink:href="#DejaVuSans-69" x="288.232422"/>
       <use xlink:href="#DejaVuSans-6c" x="316.015625"/>
       <use xlink:href="#DejaVuSans-6c" x="343.798828"/>
       <use xlink:href="#DejaVuSans-69" x="371.582031"/>
       <use xlink:href="#DejaVuSans-6f" x="399.365234"/>
       <use xlink:href="#DejaVuSans-6e" x="460.546875"/>
      </g>
     </g>
    </g>
    <g id="ytick_6">
     <g id="line2d_30">
      <path d="M 77.06875 161.059247 
L 769.05875 161.059247 
" clip-path="url(#p06cb15e16c)" style="fill: none; stroke-dasharray: 2.96,1.28; stroke-dashoffset: 0; stroke: #cccccc; stroke-width: 0.8"/>
     </g>
     <g id="line2d_31">
      <g>
       <use xlink:href="#m2cc9cca831" x="77.06875" y="161.059247" style="fill: #262626; stroke: #262626; stroke-width: 0.8"/>
      </g>
     </g>
     <g id="text_25">
      <!-- 5.0 million -->
      <g style="fill: #696969" transform="translate(7.2 165.618309) scale(0.12 -0.12)">
       <defs>
        <path id="DejaVuSans-35" d="M 691 4666 
L 3169 4666 
L 3169 4134 
L 1269 4134 
L 1269 2991 
Q 1406 3038 1543 3061 
Q 1681 3084 1819 3084 
Q 2600 3084 3056 2656 
Q 3513 2228 3513 1497 
Q 3513 744 3044 326 
Q 2575 -91 1722 -91 
Q 1428 -91 1123 -41 
Q 819 9 494 109 
L 494 744 
Q 775 591 1075 516 
Q 1375 441 1709 441 
Q 2250 441 2565 725 
Q 2881 1009 2881 1497 
Q 2881 1984 2565 2268 
Q 2250 2553 1709 2553 
Q 1456 2553 1204 2497 
Q 953 2441 691 2322 
L 691 4666 
z
" transform="scale(0.015625)"/>
       </defs>
       <use xlink:href="#DejaVuSans-35"/>
       <use xlink:href="#DejaVuSans-2e" x="63.623047"/>
       <use xlink:href="#DejaVuSans-30" x="95.410156"/>
       <use xlink:href="#DejaVuSans-20" x="159.033203"/>
       <use xlink:href="#DejaVuSans-6d" x="190.820312"/>
       <use xlink:href="#DejaVuSans-69" x="288.232422"/>
       <use xlink:href="#DejaVuSans-6c" x="316.015625"/>
       <use xlink:href="#DejaVuSans-6c" x="343.798828"/>
       <use xlink:href="#DejaVuSans-69" x="371.582031"/>
       <use xlink:href="#DejaVuSans-6f" x="399.365234"/>
       <use xlink:href="#DejaVuSans-6e" x="460.546875"/>
      </g>
     </g>
    </g>
    <g id="ytick_7">
     <g id="line2d_32">
      <path d="M 77.06875 119.049896 
L 769.05875 119.049896 
" clip-path="url(#p06cb15e16c)" style="fill: none; stroke-dasharray: 2.96,1.28; stroke-dashoffset: 0; stroke: #cccccc; stroke-width: 0.8"/>
     </g>
     <g id="line2d_33">
      <g>
       <use xlink:href="#m2cc9cca831" x="77.06875" y="119.049896" style="fill: #262626; stroke: #262626; stroke-width: 0.8"/>
      </g>
     </g>
     <g id="text_26">
      <!-- 6.0 million -->
      <g style="fill: #696969" transform="translate(7.2 123.608959) scale(0.12 -0.12)">
       <defs>
        <path id="DejaVuSans-36" d="M 2113 2584 
Q 1688 2584 1439 2293 
Q 1191 2003 1191 1497 
Q 1191 994 1439 701 
Q 1688 409 2113 409 
Q 2538 409 2786 701 
Q 3034 994 3034 1497 
Q 3034 2003 2786 2293 
Q 2538 2584 2113 2584 
z
M 3366 4563 
L 3366 3988 
Q 3128 4100 2886 4159 
Q 2644 4219 2406 4219 
Q 1781 4219 1451 3797 
Q 1122 3375 1075 2522 
Q 1259 2794 1537 2939 
Q 1816 3084 2150 3084 
Q 2853 3084 3261 2657 
Q 3669 2231 3669 1497 
Q 3669 778 3244 343 
Q 2819 -91 2113 -91 
Q 1303 -91 875 529 
Q 447 1150 447 2328 
Q 447 3434 972 4092 
Q 1497 4750 2381 4750 
Q 2619 4750 2861 4703 
Q 3103 4656 3366 4563 
z
" transform="scale(0.015625)"/>
       </defs>
       <use xlink:href="#DejaVuSans-36"/>
       <use xlink:href="#DejaVuSans-2e" x="63.623047"/>
       <use xlink:href="#DejaVuSans-30" x="95.410156"/>
       <use xlink:href="#DejaVuSans-20" x="159.033203"/>
       <use xlink:href="#DejaVuSans-6d" x="190.820312"/>
       <use xlink:href="#DejaVuSans-69" x="288.232422"/>
       <use xlink:href="#DejaVuSans-6c" x="316.015625"/>
       <use xlink:href="#DejaVuSans-6c" x="343.798828"/>
       <use xlink:href="#DejaVuSans-69" x="371.582031"/>
       <use xlink:href="#DejaVuSans-6f" x="399.365234"/>
       <use xlink:href="#DejaVuSans-6e" x="460.546875"/>
      </g>
     </g>
    </g>
    <g id="ytick_8">
     <g id="line2d_34">
      <path d="M 77.06875 77.040545 
L 769.05875 77.040545 
" clip-path="url(#p06cb15e16c)" style="fill: none; stroke-dasharray: 2.96,1.28; stroke-dashoffset: 0; stroke: #cccccc; stroke-width: 0.8"/>
     </g>
     <g id="line2d_35">
      <g>
       <use xlink:href="#m2cc9cca831" x="77.06875" y="77.040545" style="fill: #262626; stroke: #262626; stroke-width: 0.8"/>
      </g>
     </g>
     <g id="text_27">
      <!-- 7.0 million -->
      <g style="fill: #696969" transform="translate(7.2 81.599608) scale(0.12 -0.12)">
       <defs>
        <path id="DejaVuSans-37" d="M 525 4666 
L 3525 4666 
L 3525 4397 
L 1831 0 
L 1172 0 
L 2766 4134 
L 525 4134 
L 525 4666 
z
" transform="scale(0.015625)"/>
       </defs>
       <use xlink:href="#DejaVuSans-37"/>
       <use xlink:href="#DejaVuSans-2e" x="63.623047"/>
       <use xlink:href="#DejaVuSans-30" x="95.410156"/>
       <use xlink:href="#DejaVuSans-20" x="159.033203"/>
       <use xlink:href="#DejaVuSans-6d" x="190.820312"/>
       <use xlink:href="#DejaVuSans-69" x="288.232422"/>
       <use xlink:href="#DejaVuSans-6c" x="316.015625"/>
       <use xlink:href="#DejaVuSans-6c" x="343.798828"/>
       <use xlink:href="#DejaVuSans-69" x="371.582031"/>
       <use xlink:href="#DejaVuSans-6f" x="399.365234"/>
       <use xlink:href="#DejaVuSans-6e" x="460.546875"/>
      </g>
     </g>
    </g>
    <g id="ytick_9">
     <g id="line2d_36">
      <path d="M 77.06875 35.031195 
L 769.05875 35.031195 
" clip-path="url(#p06cb15e16c)" style="fill: none; stroke-dasharray: 2.96,1.28; stroke-dashoffset: 0; stroke: #cccccc; stroke-width: 0.8"/>
     </g>
     <g id="line2d_37">
      <g>
       <use xlink:href="#m2cc9cca831" x="77.06875" y="35.031195" style="fill: #262626; stroke: #262626; stroke-width: 0.8"/>
      </g>
     </g>
     <g id="text_28">
      <!-- 8.0 million -->
      <g style="fill: #696969" transform="translate(7.2 39.590257) scale(0.12 -0.12)">
       <defs>
        <path id="DejaVuSans-38" d="M 2034 2216 
Q 1584 2216 1326 1975 
Q 1069 1734 1069 1313 
Q 1069 891 1326 650 
Q 1584 409 2034 409 
Q 2484 409 2743 651 
Q 3003 894 3003 1313 
Q 3003 1734 2745 1975 
Q 2488 2216 2034 2216 
z
M 1403 2484 
Q 997 2584 770 2862 
Q 544 3141 544 3541 
Q 544 4100 942 4425 
Q 1341 4750 2034 4750 
Q 2731 4750 3128 4425 
Q 3525 4100 3525 3541 
Q 3525 3141 3298 2862 
Q 3072 2584 2669 2484 
Q 3125 2378 3379 2068 
Q 3634 1759 3634 1313 
Q 3634 634 3220 271 
Q 2806 -91 2034 -91 
Q 1263 -91 848 271 
Q 434 634 434 1313 
Q 434 1759 690 2068 
Q 947 2378 1403 2484 
z
M 1172 3481 
Q 1172 3119 1398 2916 
Q 1625 2713 2034 2713 
Q 2441 2713 2670 2916 
Q 2900 3119 2900 3481 
Q 2900 3844 2670 4047 
Q 2441 4250 2034 4250 
Q 1625 4250 1398 4047 
Q 1172 3844 1172 3481 
z
" transform="scale(0.015625)"/>
       </defs>
       <use xlink:href="#DejaVuSans-38"/>
       <use xlink:href="#DejaVuSans-2e" x="63.623047"/>
       <use xlink:href="#DejaVuSans-30" x="95.410156"/>
       <use xlink:href="#DejaVuSans-20" x="159.033203"/>
       <use xlink:href="#DejaVuSans-6d" x="190.820312"/>
       <use xlink:href="#DejaVuSans-69" x="288.232422"/>
       <use xlink:href="#DejaVuSans-6c" x="316.015625"/>
       <use xlink:href="#DejaVuSans-6c" x="343.798828"/>
       <use xlink:href="#DejaVuSans-69" x="371.582031"/>
       <use xlink:href="#DejaVuSans-6f" x="399.365234"/>
       <use xlink:href="#DejaVuSans-6e" x="460.546875"/>
      </g>
     </g>
    </g>
   </g>
   <g id="patch_3">
    <path d="M 80.710803 371.106 
L 109.847224 371.106 
L 109.847224 339.598987 
L 80.710803 339.598987 
z
" clip-path="url(#p06cb15e16c)" style="fill: #5a6cc1; stroke: #ffffff; stroke-linejoin: miter"/>
   </g>
   <g id="patch_4">
    <path d="M 117.131329 371.106 
L 146.26775 371.106 
L 146.26775 332.877491 
L 117.131329 332.877491 
z
" clip-path="url(#p06cb15e16c)" style="fill: #6a80d1; stroke: #ffffff; stroke-linejoin: miter"/>
   </g>
   <g id="patch_5">
    <path d="M 153.551855 371.106 
L 182.688276 371.106 
L 182.688276 329.936836 
L 153.551855 329.936836 
z
" clip-path="url(#p06cb15e16c)" style="fill: #7a94df; stroke: #ffffff; stroke-linejoin: miter"/>
   </g>
   <g id="patch_6">
    <path d="M 189.972382 371.106 
L 219.108803 371.106 
L 219.108803 333.297584 
L 189.972382 333.297584 
z
" clip-path="url(#p06cb15e16c)" style="fill: #8ba5e9; stroke: #ffffff; stroke-linejoin: miter"/>
   </g>
   <g id="patch_7">
    <path d="M 226.392908 371.106 
L 255.529329 371.106 
L 255.529329 325.945948 
L 226.392908 325.945948 
z
" clip-path="url(#p06cb15e16c)" style="fill: #9bb5f0; stroke: #ffffff; stroke-linejoin: miter"/>
   </g>
   <g id="patch_8">
    <path d="M 262.813434 371.106 
L 291.949855 371.106 
L 291.949855 278.055288 
L 262.813434 278.055288 
z
" clip-path="url(#p06cb15e16c)" style="fill: #aac2f3; stroke: #ffffff; stroke-linejoin: miter"/>
   </g>
   <g id="patch_9">
    <path d="M 299.233961 371.106 
L 328.370382 371.106 
L 328.370382 324.895714 
L 299.233961 324.895714 
z
" clip-path="url(#p06cb15e16c)" style="fill: #b9cdf2; stroke: #ffffff; stroke-linejoin: miter"/>
   </g>
   <g id="patch_10">
    <path d="M 335.654487 371.106 
L 364.790908 371.106 
L 364.790908 331.197117 
L 335.654487 331.197117 
z
" clip-path="url(#p06cb15e16c)" style="fill: #c7d5ee; stroke: #ffffff; stroke-linejoin: miter"/>
   </g>
   <g id="patch_11">
    <path d="M 372.075013 371.106 
L 401.211434 371.106 
L 401.211434 194.666727 
L 372.075013 194.666727 
z
" clip-path="url(#p06cb15e16c)" style="fill: #d3dbe7; stroke: #ffffff; stroke-linejoin: miter"/>
   </g>
   <g id="patch_12">
    <path d="M 408.495539 371.106 
L 437.631961 371.106 
L 437.631961 312.292909 
L 408.495539 312.292909 
z
" clip-path="url(#p06cb15e16c)" style="fill: #dddcdc; stroke: #ffffff; stroke-linejoin: miter"/>
   </g>
   <g id="patch_13">
    <path d="M 444.916066 371.106 
L 474.052487 371.106 
L 474.052487 305.235338 
L 444.916066 305.235338 
z
" clip-path="url(#p06cb15e16c)" style="fill: #e5d6ce; stroke: #ffffff; stroke-linejoin: miter"/>
   </g>
   <g id="patch_14">
    <path d="M 481.336592 371.106 
L 510.473013 371.106 
L 510.473013 315.44361 
L 481.336592 315.44361 
z
" clip-path="url(#p06cb15e16c)" style="fill: #eacdbe; stroke: #ffffff; stroke-linejoin: miter"/>
   </g>
   <g id="patch_15">
    <path d="M 517.757118 371.106 
L 546.893539 371.106 
L 546.893539 322.795247 
L 517.757118 322.795247 
z
" clip-path="url(#p06cb15e16c)" style="fill: #ecc1ad; stroke: #ffffff; stroke-linejoin: miter"/>
   </g>
   <g id="patch_16">
    <path d="M 554.177645 371.106 
L 583.314066 371.106 
L 583.314066 278.685429 
L 554.177645 278.685429 
z
" clip-path="url(#p06cb15e16c)" style="fill: #eab29b; stroke: #ffffff; stroke-linejoin: miter"/>
   </g>
   <g id="patch_17">
    <path d="M 590.598171 371.106 
L 619.734592 371.106 
L 619.734592 274.484494 
L 590.598171 274.484494 
z
" clip-path="url(#p06cb15e16c)" style="fill: #e5a089; stroke: #ffffff; stroke-linejoin: miter"/>
   </g>
   <g id="patch_18">
    <path d="M 627.018697 371.106 
L 656.155118 371.106 
L 656.155118 56.03587 
L 627.018697 56.03587 
z
" clip-path="url(#p06cb15e16c)" style="fill: #dd8e78; stroke: #ffffff; stroke-linejoin: miter"/>
   </g>
   <g id="patch_19">
    <path d="M 663.439224 371.106 
L 692.575645 371.106 
L 692.575645 289.187766 
L 663.439224 289.187766 
z
" clip-path="url(#p06cb15e16c)" style="fill: #d27867; stroke: #ffffff; stroke-linejoin: miter"/>
   </g>
   <g id="patch_20">
    <path d="M 699.85975 371.106 
L 728.996171 371.106 
L 728.996171 293.388701 
L 699.85975 293.388701 
z
" clip-path="url(#p06cb15e16c)" style="fill: #c46156; stroke: #ffffff; stroke-linejoin: miter"/>
   </g>
   <g id="patch_21">
    <path d="M 736.280276 371.106 
L 765.416697 371.106 
L 765.416697 309.982395 
L 736.280276 309.982395 
z
" clip-path="url(#p06cb15e16c)" style="fill: #b34546; stroke: #ffffff; stroke-linejoin: miter"/>
   </g>
   <g id="patch_22">
    <path d="M 77.06875 553.059 
L 113.489276 553.059 
L 113.489276 534.8637 
L 77.06875 534.8637 
z
" style="fill: #4961d2; stroke: #4961d2; stroke-linejoin: miter"/>
   </g>
   <g id="patch_23">
    <path d="M 113.489276 553.059 
L 149.909803 553.059 
L 149.909803 534.8637 
L 113.489276 534.8637 
z
" style="fill: #5977e3; stroke: #5977e3; stroke-linejoin: miter"/>
   </g>
   <g id="patch_24">
    <path d="M 149.909803 553.059 
L 186.330329 553.059 
L 186.330329 534.8637 
L 149.909803 534.8637 
z
" style="fill: #6a8bef; stroke: #6a8bef; stroke-linejoin: miter"/>
   </g>
   <g id="patch_25">
    <path d="M 186.330329 553.059 
L 222.750855 553.059 
L 222.750855 534.8637 
L 186.330329 534.8637 
z
" style="fill: #7b9ff9; stroke: #7b9ff9; stroke-linejoin: miter"/>
   </g>
   <g id="patch_26">
    <path d="M 222.750855 553.059 
L 259.171382 553.059 
L 259.171382 534.8637 
L 222.750855 534.8637 
z
" style="fill: #8db0fe; stroke: #8db0fe; stroke-linejoin: miter"/>
   </g>
   <g id="patch_27">
    <path d="M 259.171382 553.059 
L 295.591908 553.059 
L 295.591908 534.8637 
L 259.171382 534.8637 
z
" style="fill: #9ebeff; stroke: #9ebeff; stroke-linejoin: miter"/>
   </g>
   <g id="patch_28">
    <path d="M 295.591908 553.059 
L 332.012434 553.059 
L 332.012434 534.8637 
L 295.591908 534.8637 
z
" style="fill: #afcafc; stroke: #afcafc; stroke-linejoin: miter"/>
   </g>
   <g id="patch_29">
    <path d="M 332.012434 553.059 
L 368.432961 553.059 
L 368.432961 534.8637 
L 332.012434 534.8637 
z
" style="fill: #c0d4f5; stroke: #c0d4f5; stroke-linejoin: miter"/>
   </g>
   <g id="patch_30">
    <path d="M 368.432961 553.059 
L 404.853487 553.059 
L 404.853487 534.8637 
L 368.432961 534.8637 
z
" style="fill: #cfdaea; stroke: #cfdaea; stroke-linejoin: miter"/>
   </g>
   <g id="patch_31">
    <path d="M 404.853487 553.059 
L 441.274013 553.059 
L 441.274013 534.8637 
L 404.853487 534.8637 
z
" style="fill: #dddcdc; stroke: #dddcdc; stroke-linejoin: miter"/>
   </g>
   <g id="patch_32">
    <path d="M 441.274013 553.059 
L 477.694539 553.059 
L 477.694539 534.8637 
L 441.274013 534.8637 
z
" style="fill: #e9d5cb; stroke: #e9d5cb; stroke-linejoin: miter"/>
   </g>
   <g id="patch_33">
    <path d="M 477.694539 553.059 
L 514.115066 553.059 
L 514.115066 534.8637 
L 477.694539 534.8637 
z
" style="fill: #f2cbb7; stroke: #f2cbb7; stroke-linejoin: miter"/>
   </g>
   <g id="patch_34">
    <path d="M 514.115066 553.059 
L 550.535592 553.059 
L 550.535592 534.8637 
L 514.115066 534.8637 
z
" style="fill: #f6bda2; stroke: #f6bda2; stroke-linejoin: miter"/>
   </g>
   <g id="patch_35">
    <path d="M 550.535592 553.059 
L 586.956118 553.059 
L 586.956118 534.8637 
L 550.535592 534.8637 
z
" style="fill: #f7ac8e; stroke: #f7ac8e; stroke-linejoin: miter"/>
   </g>
   <g id="patch_36">
    <path d="M 586.956118 553.059 
L 623.376645 553.059 
L 623.376645 534.8637 
L 586.956118 534.8637 
z
" style="fill: #f4987a; stroke: #f4987a; stroke-linejoin: miter"/>
   </g>
   <g id="patch_37">
    <path d="M 623.376645 553.059 
L 659.797171 553.059 
L 659.797171 534.8637 
L 623.376645 534.8637 
z
" style="fill: #ee8468; stroke: #ee8468; stroke-linejoin: miter"/>
   </g>
   <g id="patch_38">
    <path d="M 659.797171 553.059 
L 696.217697 553.059 
L 696.217697 534.8637 
L 659.797171 534.8637 
z
" style="fill: #e36c55; stroke: #e36c55; stroke-linejoin: miter"/>
   </g>
   <g id="patch_39">
    <path d="M 696.217697 553.059 
L 732.638224 553.059 
L 732.638224 534.8637 
L 696.217697 534.8637 
z
" style="fill: #d65244; stroke: #d65244; stroke-linejoin: miter"/>
   </g>
   <g id="patch_40">
    <path d="M 732.638224 553.059 
L 769.05875 553.059 
L 769.05875 534.8637 
L 732.638224 534.8637 
z
" style="fill: #c53334; stroke: #c53334; stroke-linejoin: miter"/>
   </g>
   <g id="line2d_38">
    <path clip-path="url(#p06cb15e16c)" style="fill: none; stroke: #424242; stroke-width: 2.25; stroke-linecap: round"/>
   </g>
   <g id="line2d_39">
    <path clip-path="url(#p06cb15e16c)" style="fill: none; stroke: #424242; stroke-width: 2.25; stroke-linecap: round"/>
   </g>
   <g id="line2d_40">
    <path clip-path="url(#p06cb15e16c)" style="fill: none; stroke: #424242; stroke-width: 2.25; stroke-linecap: round"/>
   </g>
   <g id="line2d_41">
    <path clip-path="url(#p06cb15e16c)" style="fill: none; stroke: #424242; stroke-width: 2.25; stroke-linecap: round"/>
   </g>
   <g id="line2d_42">
    <path clip-path="url(#p06cb15e16c)" style="fill: none; stroke: #424242; stroke-width: 2.25; stroke-linecap: round"/>
   </g>
   <g id="line2d_43">
    <path clip-path="url(#p06cb15e16c)" style="fill: none; stroke: #424242; stroke-width: 2.25; stroke-linecap: round"/>
   </g>
   <g id="line2d_44">
    <path clip-path="url(#p06cb15e16c)" style="fill: none; stroke: #424242; stroke-width: 2.25; stroke-linecap: round"/>
   </g>
   <g id="line2d_45">
    <path clip-path="url(#p06cb15e16c)" style="fill: none; stroke: #424242; stroke-width: 2.25; stroke-linecap: round"/>
   </g>
   <g id="line2d_46">
    <path clip-path="url(#p06cb15e16c)" style="fill: none; stroke: #424242; stroke-width: 2.25; stroke-linecap: round"/>
   </g>
   <g id="line2d_47">
    <path clip-path="url(#p06cb15e16c)" style="fill: none; stroke: #424242; stroke-width: 2.25; stroke-linecap: round"/>
   </g>
   <g id="line2d_48">
    <path clip-path="url(#p06cb15e16c)" style="fill: none; stroke: #424242; stroke-width: 2.25; stroke-linecap: round"/>
   </g>
   <g id="line2d_49">
    <path clip-path="url(#p06cb15e16c)" style="fill: none; stroke: #424242; stroke-width: 2.25; stroke-linecap: round"/>
   </g>
   <g id="line2d_50">
    <path clip-path="url(#p06cb15e16c)" style="fill: none; stroke: #424242; stroke-width: 2.25; stroke-linecap: round"/>
   </g>
   <g id="line2d_51">
    <path clip-path="url(#p06cb15e16c)" style="fill: none; stroke: #424242; stroke-width: 2.25; stroke-linecap: round"/>
   </g>
   <g id="line2d_52">
    <path clip-path="url(#p06cb15e16c)" style="fill: none; stroke: #424242; stroke-width: 2.25; stroke-linecap: round"/>
   </g>
   <g id="line2d_53">
    <path clip-path="url(#p06cb15e16c)" style="fill: none; stroke: #424242; stroke-width: 2.25; stroke-linecap: round"/>
   </g>
   <g id="line2d_54">
    <path clip-path="url(#p06cb15e16c)" style="fill: none; stroke: #424242; stroke-width: 2.25; stroke-linecap: round"/>
   </g>
   <g id="line2d_55">
    <path clip-path="url(#p06cb15e16c)" style="fill: none; stroke: #424242; stroke-width: 2.25; stroke-linecap: round"/>
   </g>
   <g id="line2d_56">
    <path clip-path="url(#p06cb15e16c)" style="fill: none; stroke: #424242; stroke-width: 2.25; stroke-linecap: round"/>
   </g>
   <g id="patch_41">
    <path d="M 77.06875 371.106 
L 77.06875 7.2 
" style="fill: none; stroke: #808080; stroke-width: 0.8; stroke-linejoin: miter; stroke-linecap: square"/>
   </g>
   <g id="patch_42">
    <path d="M 769.05875 371.106 
L 769.05875 7.2 
" style="fill: none; stroke: #808080; stroke-width: 0.8; stroke-linejoin: miter; stroke-linecap: square"/>
   </g>
   <g id="patch_43">
    <path d="M 77.06875 371.106 
L 769.05875 371.106 
" style="fill: none; stroke: #808080; stroke-width: 0.8; stroke-linejoin: miter; stroke-linecap: square"/>
   </g>
   <g id="patch_44">
    <path d="M 77.06875 7.2 
L 769.05875 7.2 
" style="fill: none; stroke: #808080; stroke-width: 0.8; stroke-linejoin: miter; stroke-linecap: square"/>
   </g>
   <g id="text_29">
    <!-- Menos hurtos por mil habitantes -->
    <g style="fill: #4961d2" transform="translate(7.86975 575.082425) scale(0.14 -0.14)">
     <defs>
      <path id="Roboto-Regular-4d" d="M 2794 841 
L 4281 4550 
L 5056 4550 
L 5056 0 
L 4456 0 
L 4456 1775 
L 4516 3678 
L 3019 0 
L 2563 0 
L 1069 3684 
L 1128 1775 
L 1128 0 
L 528 0 
L 528 4550 
L 1303 4550 
L 2794 841 
z
" transform="scale(0.015625)"/>
      <path id="Roboto-Regular-65" d="M 3116 591 
Q 2950 341 2647 139 
Q 2344 -63 1844 -63 
Q 1138 -63 714 396 
Q 291 856 291 1572 
L 291 1703 
Q 291 2256 502 2645 
Q 713 3034 1050 3239 
Q 1388 3444 1769 3444 
Q 2494 3444 2826 2970 
Q 3159 2497 3159 1788 
L 3159 1528 
L 872 1528 
Q 884 1063 1148 736 
Q 1413 409 1875 409 
Q 2181 409 2393 534 
Q 2606 659 2766 869 
L 3116 591 
z
M 1769 2969 
Q 1425 2969 1187 2719 
Q 950 2469 891 2000 
L 2581 2000 
L 2581 2044 
Q 2559 2381 2386 2675 
Q 2213 2969 1769 2969 
z
" transform="scale(0.015625)"/>
      <path id="Roboto-Regular-6e" d="M 1844 2956 
Q 1566 2956 1353 2806 
Q 1141 2656 1019 2416 
L 1019 0 
L 441 0 
L 441 3381 
L 988 3381 
L 1006 2959 
Q 1391 3444 2016 3444 
Q 2513 3444 2805 3166 
Q 3097 2888 3100 2231 
L 3100 0 
L 2519 0 
L 2519 2222 
Q 2519 2619 2345 2787 
Q 2172 2956 1844 2956 
z
" transform="scale(0.015625)"/>
      <path id="Roboto-Regular-6f" d="M 288 1725 
Q 288 2459 700 2951 
Q 1113 3444 1822 3444 
Q 2531 3444 2943 2961 
Q 3356 2478 3366 1756 
L 3366 1653 
Q 3366 919 2952 428 
Q 2538 -63 1828 -63 
Q 1116 -63 702 428 
Q 288 919 288 1653 
L 288 1725 
z
M 866 1653 
Q 866 1150 1105 781 
Q 1344 413 1828 413 
Q 2300 413 2540 777 
Q 2781 1141 2784 1644 
L 2784 1725 
Q 2784 2222 2543 2595 
Q 2303 2969 1822 2969 
Q 1344 2969 1105 2595 
Q 866 2222 866 1725 
L 866 1653 
z
" transform="scale(0.015625)"/>
      <path id="Roboto-Regular-73" d="M 2409 897 
Q 2409 1081 2273 1229 
Q 2138 1378 1647 1478 
Q 1081 1594 747 1814 
Q 413 2034 413 2456 
Q 413 2856 755 3150 
Q 1097 3444 1666 3444 
Q 2272 3444 2612 3134 
Q 2953 2825 2953 2388 
L 2375 2388 
Q 2375 2597 2190 2783 
Q 2006 2969 1666 2969 
Q 1306 2969 1150 2812 
Q 994 2656 994 2472 
Q 994 2288 1139 2173 
Q 1284 2059 1756 1953 
Q 2378 1813 2683 1584 
Q 2988 1356 2988 941 
Q 2988 494 2630 215 
Q 2272 -63 1681 -63 
Q 1009 -63 653 281 
Q 297 625 297 1044 
L 878 1044 
Q 897 684 1155 548 
Q 1413 413 1681 413 
Q 2034 413 2221 550 
Q 2409 688 2409 897 
z
" transform="scale(0.015625)"/>
      <path id="Roboto-Regular-20" transform="scale(0.015625)"/>
      <path id="Roboto-Regular-68" d="M 1844 2956 
Q 1566 2956 1353 2806 
Q 1141 2656 1019 2416 
L 1019 0 
L 441 0 
L 441 4800 
L 1019 4800 
L 1019 2978 
Q 1403 3444 2016 3444 
Q 2513 3444 2805 3166 
Q 3097 2888 3100 2231 
L 3100 0 
L 2519 0 
L 2519 2222 
Q 2519 2619 2345 2787 
Q 2172 2956 1844 2956 
z
" transform="scale(0.015625)"/>
      <path id="Roboto-Regular-75" d="M 2538 0 
L 2525 334 
Q 2194 -63 1538 -63 
Q 1041 -63 734 231 
Q 428 525 428 1200 
L 428 3381 
L 1006 3381 
L 1006 1194 
Q 1006 738 1198 583 
Q 1391 428 1628 428 
Q 2281 428 2509 919 
L 2509 3381 
L 3091 3381 
L 3091 0 
L 2538 0 
z
" transform="scale(0.015625)"/>
      <path id="Roboto-Regular-72" d="M 1791 2888 
Q 1225 2888 1019 2400 
L 1019 0 
L 441 0 
L 441 3381 
L 1003 3381 
L 1016 2994 
Q 1294 3444 1819 3444 
Q 1981 3444 2075 3400 
L 2072 2863 
Q 1944 2888 1791 2888 
z
" transform="scale(0.015625)"/>
      <path id="Roboto-Regular-74" d="M 1872 0 
Q 1675 -63 1425 -63 
Q 1103 -63 875 134 
Q 647 331 647 841 
L 647 2938 
L 28 2938 
L 28 3381 
L 647 3381 
L 647 4203 
L 1225 4203 
L 1225 3381 
L 1856 3381 
L 1856 2938 
L 1225 2938 
L 1225 838 
Q 1225 578 1337 506 
Q 1450 434 1597 434 
Q 1706 434 1869 472 
L 1872 0 
z
" transform="scale(0.015625)"/>
      <path id="Roboto-Regular-70" d="M 1984 -63 
Q 1375 -63 1019 328 
L 1019 -1300 
L 438 -1300 
L 438 3381 
L 969 3381 
L 997 3009 
Q 1353 3444 1975 3444 
Q 2616 3444 2956 2969 
Q 3297 2494 3297 1719 
L 3297 1653 
Q 3297 913 2955 425 
Q 2613 -63 1984 -63 
z
M 1806 2956 
Q 1281 2956 1019 2491 
L 1019 872 
Q 1284 413 1813 413 
Q 2281 413 2498 781 
Q 2716 1150 2716 1653 
L 2716 1719 
Q 2716 2222 2498 2589 
Q 2281 2956 1806 2956 
z
" transform="scale(0.015625)"/>
      <path id="Roboto-Regular-6d" d="M 1794 2956 
Q 1225 2956 1016 2478 
L 1016 0 
L 434 0 
L 434 3381 
L 984 3381 
L 1000 3013 
Q 1366 3444 2000 3444 
Q 2325 3444 2579 3314 
Q 2834 3184 2969 2900 
Q 3138 3144 3408 3294 
Q 3678 3444 4044 3444 
Q 4588 3444 4883 3153 
Q 5178 2863 5178 2222 
L 5178 0 
L 4597 0 
L 4597 2228 
Q 4597 2653 4401 2804 
Q 4206 2956 3875 2956 
Q 3525 2956 3325 2748 
Q 3125 2541 3094 2244 
L 3094 0 
L 2516 0 
L 2516 2225 
Q 2516 2622 2319 2789 
Q 2122 2956 1794 2956 
z
" transform="scale(0.015625)"/>
      <path id="Roboto-Regular-69" d="M 444 4278 
Q 444 4419 530 4516 
Q 616 4613 784 4613 
Q 950 4613 1039 4516 
Q 1128 4419 1128 4278 
Q 1128 4144 1039 4048 
Q 950 3953 784 3953 
Q 616 3953 530 4048 
Q 444 4144 444 4278 
z
M 1069 3381 
L 1069 0 
L 488 0 
L 488 3381 
L 1069 3381 
z
" transform="scale(0.015625)"/>
      <path id="Roboto-Regular-6c" d="M 1069 4800 
L 1069 0 
L 488 0 
L 488 4800 
L 1069 4800 
z
" transform="scale(0.015625)"/>
      <path id="Roboto-Regular-61" d="M 2528 0 
Q 2472 122 2447 356 
Q 2284 184 2040 60 
Q 1797 -63 1484 -63 
Q 966 -63 653 228 
Q 341 519 341 941 
Q 341 1484 753 1767 
Q 1166 2050 1863 2050 
L 2434 2050 
L 2434 2319 
Q 2434 2619 2254 2798 
Q 2075 2978 1722 2978 
Q 1394 2978 1192 2817 
Q 991 2656 991 2444 
L 413 2444 
Q 413 2806 778 3125 
Q 1144 3444 1756 3444 
Q 2306 3444 2659 3162 
Q 3013 2881 3013 2313 
L 3013 794 
Q 3013 325 3131 50 
L 3131 0 
L 2528 0 
z
M 1569 444 
Q 1881 444 2111 600 
Q 2341 756 2434 947 
L 2434 1644 
L 1897 1644 
Q 922 1625 922 1019 
Q 922 778 1084 611 
Q 1247 444 1569 444 
z
" transform="scale(0.015625)"/>
      <path id="Roboto-Regular-62" d="M 3303 1653 
Q 3303 913 2959 425 
Q 2616 -63 1988 -63 
Q 1347 -63 1000 391 
L 969 0 
L 438 0 
L 438 4800 
L 1019 4800 
L 1019 3016 
Q 1363 3444 1981 3444 
Q 2619 3444 2961 2969 
Q 3303 2494 3303 1719 
L 3303 1653 
z
M 1838 2956 
Q 1522 2956 1325 2804 
Q 1128 2653 1019 2431 
L 1019 959 
Q 1131 734 1331 581 
Q 1531 428 1844 428 
Q 2313 428 2517 789 
Q 2722 1150 2722 1653 
L 2722 1719 
Q 2722 2222 2526 2589 
Q 2331 2956 1838 2956 
z
" transform="scale(0.015625)"/>
     </defs>
     <use xlink:href="#Roboto-Regular-4d"/>
     <use xlink:href="#Roboto-Regular-65" x="87.304688"/>
     <use xlink:href="#Roboto-Regular-6e" x="140.332031"/>
     <use xlink:href="#Roboto-Regular-6f" x="195.556641"/>
     <use xlink:href="#Roboto-Regular-73" x="252.587891"/>
     <use xlink:href="#Roboto-Regular-20" x="304.199219"/>
     <use xlink:href="#Roboto-Regular-68" x="329.003906"/>
     <use xlink:href="#Roboto-Regular-75" x="384.082031"/>
     <use xlink:href="#Roboto-Regular-72" x="439.208984"/>
     <use xlink:href="#Roboto-Regular-74" x="473.095703"/>
     <use xlink:href="#Roboto-Regular-6f" x="505.810547"/>
     <use xlink:href="#Roboto-Regular-73" x="562.841797"/>
     <use xlink:href="#Roboto-Regular-20" x="614.453125"/>
     <use xlink:href="#Roboto-Regular-70" x="639.257812"/>
     <use xlink:href="#Roboto-Regular-6f" x="695.410156"/>
     <use xlink:href="#Roboto-Regular-72" x="752.441406"/>
     <use xlink:href="#Roboto-Regular-20" x="786.328125"/>
     <use xlink:href="#Roboto-Regular-6d" x="811.132812"/>
     <use xlink:href="#Roboto-Regular-69" x="898.828125"/>
     <use xlink:href="#Roboto-Regular-6c" x="923.144531"/>
     <use xlink:href="#Roboto-Regular-20" x="947.460938"/>
     <use xlink:href="#Roboto-Regular-68" x="972.265625"/>
     <use xlink:href="#Roboto-Regular-61" x="1027.34375"/>
     <use xlink:href="#Roboto-Regular-62" x="1081.738281"/>
     <use xlink:href="#Roboto-Regular-69" x="1137.890625"/>
     <use xlink:href="#Roboto-Regular-74" x="1162.207031"/>
     <use xlink:href="#Roboto-Regular-61" x="1194.921875"/>
     <use xlink:href="#Roboto-Regular-6e" x="1249.316406"/>
     <use xlink:href="#Roboto-Regular-74" x="1304.541016"/>
     <use xlink:href="#Roboto-Regular-65" x="1337.255859"/>
     <use xlink:href="#Roboto-Regular-73" x="1390.283203"/>
    </g>
   </g>
   <g id="text_30">
    <!-- Ms hurtos por mil habitantes -->
    <g style="fill: #c53334" transform="translate(651.911188 575.082425) scale(0.14 -0.14)">
     <defs>
      <path id="Roboto-Regular-e1" d="M 2528 0 
Q 2472 122 2447 356 
Q 2284 184 2040 60 
Q 1797 -63 1484 -63 
Q 966 -63 653 228 
Q 341 519 341 941 
Q 341 1484 753 1767 
Q 1166 2050 1863 2050 
L 2434 2050 
L 2434 2319 
Q 2434 2619 2254 2798 
Q 2075 2978 1722 2978 
Q 1394 2978 1192 2817 
Q 991 2656 991 2444 
L 413 2444 
Q 413 2806 778 3125 
Q 1144 3444 1756 3444 
Q 2306 3444 2659 3162 
Q 3013 2881 3013 2313 
L 3013 794 
Q 3013 325 3131 50 
L 3131 0 
L 2528 0 
z
M 1569 444 
Q 1881 444 2111 600 
Q 2341 756 2434 947 
L 2434 1644 
L 1897 1644 
Q 922 1625 922 1019 
Q 922 778 1084 611 
Q 1247 444 1569 444 
z
M 1496 3881 
L 2103 4800 
L 2800 4800 
L 1962 3881 
L 1496 3881 
z
" transform="scale(0.015625)"/>
     </defs>
     <use xlink:href="#Roboto-Regular-4d"/>
     <use xlink:href="#Roboto-Regular-e1" x="87.304688"/>
     <use xlink:href="#Roboto-Regular-73" x="141.699219"/>
     <use xlink:href="#Roboto-Regular-20" x="193.310547"/>
     <use xlink:href="#Roboto-Regular-68" x="218.115234"/>
     <use xlink:href="#Roboto-Regular-75" x="273.193359"/>
     <use xlink:href="#Roboto-Regular-72" x="328.320312"/>
     <use xlink:href="#Roboto-Regular-74" x="362.207031"/>
     <use xlink:href="#Roboto-Regular-6f" x="394.921875"/>
     <use xlink:href="#Roboto-Regular-73" x="451.953125"/>
     <use xlink:href="#Roboto-Regular-20" x="503.564453"/>
     <use xlink:href="#Roboto-Regular-70" x="528.369141"/>
     <use xlink:href="#Roboto-Regular-6f" x="584.521484"/>
     <use xlink:href="#Roboto-Regular-72" x="641.552734"/>
     <use xlink:href="#Roboto-Regular-20" x="675.439453"/>
     <use xlink:href="#Roboto-Regular-6d" x="700.244141"/>
     <use xlink:href="#Roboto-Regular-69" x="787.939453"/>
     <use xlink:href="#Roboto-Regular-6c" x="812.255859"/>
     <use xlink:href="#Roboto-Regular-20" x="836.572266"/>
     <use xlink:href="#Roboto-Regular-68" x="861.376953"/>
     <use xlink:href="#Roboto-Regular-61" x="916.455078"/>
     <use xlink:href="#Roboto-Regular-62" x="970.849609"/>
     <use xlink:href="#Roboto-Regular-69" x="1027.001953"/>
     <use xlink:href="#Roboto-Regular-74" x="1051.318359"/>
     <use xlink:href="#Roboto-Regular-61" x="1084.033203"/>
     <use xlink:href="#Roboto-Regular-6e" x="1138.427734"/>
     <use xlink:href="#Roboto-Regular-74" x="1193.652344"/>
     <use xlink:href="#Roboto-Regular-65" x="1226.367188"/>
     <use xlink:href="#Roboto-Regular-73" x="1279.394531"/>
    </g>
   </g>
  </g>
 </g>
 <defs>
  <clipPath id="p06cb15e16c">
   <rect x="77.06875" y="7.2" width="691.99" height="363.906"/>
  </clipPath>
 </defs>
</svg>
